  <svg class="wmx100 h-auto d-block" width="171" height="70" viewBox="0 0 171 70"><title>Stack Overflow Developer Survey</title><path d="M77.7793 22.0953H69.0523V20.8786L73.4158 16.0302C73.8061 15.5972 74.1324 15.213 74.3946 14.8776C74.6569 14.5422 74.8673 14.2312 75.0258 13.9445C75.1844 13.664 75.2972 13.3987 75.3643 13.1487C75.4314 12.8925 75.4649 12.6303 75.4649 12.3619C75.4649 12.0326 75.41 11.7246 75.3003 11.438C75.1966 11.1453 75.0441 10.8922 74.8429 10.6787C74.6355 10.4653 74.3855 10.2976 74.0927 10.1756C73.8061 10.0475 73.4798 9.98349 73.1139 9.98349C72.6687 9.98349 72.2815 10.0475 71.9521 10.1756C71.6289 10.3037 71.3606 10.4836 71.1471 10.7153C70.9276 10.9532 70.7629 11.2398 70.6531 11.5752C70.5495 11.9106 70.4976 12.2857 70.4976 12.7004H68.7961C68.7961 12.1393 68.8937 11.6118 69.0889 11.1178C69.284 10.6177 69.5676 10.1817 69.9396 9.80968C70.3055 9.43766 70.7538 9.14188 71.2843 8.92233C71.821 8.70278 72.4309 8.59301 73.1139 8.59301C73.7421 8.59301 74.3062 8.68754 74.8063 8.87659C75.3125 9.05955 75.7394 9.31569 76.087 9.64502C76.4346 9.97434 76.6999 10.3646 76.8828 10.8159C77.0719 11.2672 77.1664 11.7582 77.1664 12.2888C77.1664 12.6852 77.0993 13.0785 76.9652 13.4688C76.831 13.853 76.6511 14.2342 76.4255 14.6123C76.1937 14.9904 75.9254 15.3655 75.6204 15.7375C75.3216 16.1034 75.0045 16.4693 74.6691 16.8352L71.0922 20.7139H77.7793V22.0953ZM89.2233 16.9999C89.2233 17.8476 89.1258 18.6008 88.9306 19.2594C88.7354 19.912 88.4549 20.4609 88.089 20.9061C87.7231 21.3573 87.2748 21.6989 86.7443 21.9306C86.2137 22.1624 85.6069 22.2782 84.9238 22.2782C84.2469 22.2782 83.6401 22.1654 83.1034 21.9398C82.5667 21.708 82.1124 21.3634 81.7404 20.9061C81.3684 20.4609 81.0848 19.912 80.8896 19.2594C80.6945 18.6008 80.5969 17.8476 80.5969 16.9999V13.8805C80.5969 13.0328 80.6945 12.2827 80.8896 11.6301C81.0848 10.9715 81.3684 10.4165 81.7404 9.96519C82.1063 9.5139 82.5545 9.17238 83.0851 8.94063C83.6218 8.70278 84.2286 8.58386 84.9055 8.58386C85.5886 8.58386 86.1954 8.70278 86.726 8.94063C87.2626 9.17238 87.717 9.5139 88.089 9.96519C88.4549 10.4165 88.7354 10.9715 88.9306 11.6301C89.1258 12.2827 89.2233 13.0328 89.2233 13.8805V16.9999ZM82.2984 16.6614L87.4852 12.6821C87.4364 12.243 87.348 11.8558 87.2199 11.5203C87.098 11.1788 86.9303 10.8952 86.7168 10.6696C86.5095 10.4378 86.2533 10.264 85.9484 10.1481C85.6496 10.0323 85.3019 9.97434 84.9055 9.97434C84.503 9.97434 84.1463 10.0384 83.8352 10.1664C83.5303 10.2884 83.2711 10.4683 83.0577 10.7062C82.8015 11.005 82.6094 11.3923 82.4813 11.8679C82.3594 12.3375 82.2984 12.8834 82.2984 13.5054V15.7375C82.2984 15.89 82.2984 16.0424 82.2984 16.1949C82.2984 16.3474 82.2984 16.5029 82.2984 16.6614ZM87.5218 17.3567V15.4722C87.5218 15.3807 87.5218 15.2069 87.5218 14.9508C87.5218 14.6885 87.5218 14.472 87.5218 14.3013L82.3441 18.2623C82.399 18.7075 82.4966 19.1009 82.6369 19.4424C82.7771 19.7778 82.9601 20.0553 83.1857 20.2748C83.3931 20.4822 83.6431 20.6408 83.9359 20.7505C84.2286 20.8542 84.5579 20.9061 84.9238 20.9061C85.308 20.9061 85.6496 20.8481 85.9484 20.7322C86.2472 20.6164 86.5003 20.4487 86.7077 20.2291C86.9882 19.9303 87.1925 19.54 87.3206 19.0582C87.4547 18.5764 87.5218 18.0092 87.5218 17.3567ZM100.283 22.0953H91.556V20.8786L95.9196 16.0302C96.3099 15.5972 96.6362 15.213 96.8984 14.8776C97.1606 14.5422 97.371 14.2312 97.5296 13.9445C97.6882 13.664 97.801 13.3987 97.8681 13.1487C97.9352 12.8925 97.9687 12.6303 97.9687 12.3619C97.9687 12.0326 97.9138 11.7246 97.804 11.438C97.7004 11.1453 97.5479 10.8922 97.3466 10.6787C97.1393 10.4653 96.8893 10.2976 96.5965 10.1756C96.3099 10.0475 95.9836 9.98349 95.6177 9.98349C95.1725 9.98349 94.7852 10.0475 94.4559 10.1756C94.1327 10.3037 93.8644 10.4836 93.6509 10.7153C93.4314 10.9532 93.2667 11.2398 93.1569 11.5752C93.0532 11.9106 93.0014 12.2857 93.0014 12.7004H91.2999C91.2999 12.1393 91.3975 11.6118 91.5926 11.1178C91.7878 10.6177 92.0714 10.1817 92.4434 9.80968C92.8093 9.43766 93.2575 9.14188 93.7881 8.92233C94.3248 8.70278 94.9347 8.59301 95.6177 8.59301C96.2459 8.59301 96.81 8.68754 97.3101 8.87659C97.8162 9.05955 98.2431 9.31569 98.5908 9.64502C98.9384 9.97434 99.2037 10.3646 99.3866 10.8159C99.5757 11.2672 99.6702 11.7582 99.6702 12.2888C99.6702 12.6852 99.6031 13.0785 99.469 13.4688C99.3348 13.853 99.1549 14.2342 98.9292 14.6123C98.6975 14.9904 98.4291 15.3655 98.1242 15.7375C97.8254 16.1034 97.5083 16.4693 97.1728 16.8352L93.596 20.7139H100.283V22.0953ZM110.227 17.622H112.084V19.0033H110.227V22.0953H108.535V19.0033H102.46V18.0062L108.425 8.77597H110.227V17.622ZM104.336 17.622H108.535V11.0263L108.26 11.5386L104.336 17.622ZM69.162 43.0953V29.776H72.6108C73.2267 29.776 73.8031 29.8522 74.3397 30.0047C74.8764 30.151 75.3643 30.3614 75.8034 30.6359C76.1876 30.8615 76.5291 31.139 76.828 31.4683C77.1329 31.7915 77.3982 32.1453 77.6238 32.5295C77.8861 32.9991 78.0873 33.5174 78.2276 34.0846C78.374 34.6518 78.4471 35.2555 78.4471 35.8959V36.9936C78.4471 37.6096 78.38 38.192 78.2459 38.7409C78.1117 39.2898 77.9227 39.7929 77.6787 40.2503C77.447 40.6589 77.1756 41.037 76.8646 41.3846C76.5535 41.7261 76.212 42.0128 75.84 42.2445C75.407 42.519 74.9283 42.7294 74.4038 42.8757C73.8854 43.0221 73.3304 43.0953 72.7389 43.0953H69.162ZM71.7509 31.8617V41.0279H72.7389C73.056 41.0279 73.3518 40.9882 73.6262 40.9089C73.9006 40.8297 74.1507 40.7138 74.3763 40.5613C74.6081 40.4028 74.8154 40.2015 74.9984 39.9576C75.1874 39.7075 75.3491 39.4178 75.4832 39.0885C75.593 38.8019 75.6753 38.4847 75.7302 38.1371C75.7912 37.7834 75.8217 37.4022 75.8217 36.9936V35.8776C75.8217 35.4934 75.7912 35.1305 75.7302 34.789C75.6753 34.4414 75.593 34.1243 75.4832 33.8376C75.3491 33.4961 75.1722 33.1912 74.9526 32.9228C74.7392 32.6545 74.4892 32.435 74.2025 32.2642C73.983 32.1361 73.739 32.0385 73.4707 31.9715C73.2085 31.8983 72.9218 31.8617 72.6108 31.8617H71.7509ZM85.3629 43.2782C84.6006 43.2782 83.9084 43.1532 83.2864 42.9032C82.6643 42.6531 82.1307 42.3116 81.6855 41.8786C81.2403 41.4517 80.8957 40.9486 80.6518 40.3692C80.4139 39.7837 80.295 39.1586 80.295 38.4939V38.128C80.295 37.3718 80.4139 36.6826 80.6518 36.0606C80.8896 35.4324 81.222 34.8927 81.6489 34.4414C82.0758 33.9901 82.582 33.6394 83.1674 33.3894C83.7529 33.1393 84.3902 33.0143 85.0793 33.0143C85.7929 33.0143 86.4271 33.1332 86.9821 33.3711C87.5432 33.6028 88.0189 33.9322 88.4092 34.3591C88.7934 34.786 89.0861 35.3013 89.2874 35.905C89.4886 36.5027 89.5892 37.1644 89.5892 37.8901V38.9696H82.8747V38.997C82.9601 39.3934 83.0699 39.7136 83.204 39.9576C83.3382 40.1954 83.5181 40.4119 83.7438 40.6071C83.9755 40.8083 84.2408 40.9638 84.5396 41.0736C84.8385 41.1834 85.1647 41.2383 85.5184 41.2383C86.0185 41.2383 86.5034 41.1437 86.973 40.9547C87.4425 40.7656 87.8237 40.482 88.1164 40.1039L89.388 41.4761C89.0648 41.9335 88.5525 42.3482 87.8512 42.7202C87.1498 43.0922 86.3204 43.2782 85.3629 43.2782ZM85.061 35.0726C84.7744 35.0726 84.5122 35.1244 84.2743 35.2281C84.0365 35.3257 83.8291 35.469 83.6523 35.6581C83.4693 35.8471 83.3169 36.0728 83.1949 36.335C83.0729 36.5972 82.9814 36.89 82.9204 37.2132H87.0919V37.0119C87.0919 36.7436 87.0431 36.4905 86.9455 36.2527C86.8479 36.0148 86.7138 35.8075 86.543 35.6306C86.3722 35.4598 86.1618 35.3257 85.9118 35.2281C85.6679 35.1244 85.3843 35.0726 85.061 35.0726ZM94.9591 43.0953L91.181 33.1973H93.8339L96.0111 40.1771L96.1483 40.8723L96.2855 40.1771L98.4535 33.1973H101.106L97.3466 43.0953H94.9591ZM107.867 43.2782C107.104 43.2782 106.412 43.1532 105.79 42.9032C105.168 42.6531 104.634 42.3116 104.189 41.8786C103.744 41.4517 103.399 40.9486 103.156 40.3692C102.918 39.7837 102.799 39.1586 102.799 38.4939V38.128C102.799 37.3718 102.918 36.6826 103.156 36.0606C103.393 35.4324 103.726 34.8927 104.153 34.4414C104.58 33.9901 105.086 33.6394 105.671 33.3894C106.257 33.1393 106.894 33.0143 107.583 33.0143C108.297 33.0143 108.931 33.1332 109.486 33.3711C110.047 33.6028 110.523 33.9322 110.913 34.3591C111.297 34.786 111.59 35.3013 111.791 35.905C111.992 36.5027 112.093 37.1644 112.093 37.8901V38.9696H105.378V38.997C105.464 39.3934 105.574 39.7136 105.708 39.9576C105.842 40.1954 106.022 40.4119 106.248 40.6071C106.479 40.8083 106.745 40.9638 107.043 41.0736C107.342 41.1834 107.669 41.2383 108.022 41.2383C108.522 41.2383 109.007 41.1437 109.477 40.9547C109.946 40.7656 110.327 40.482 110.62 40.1039L111.892 41.4761C111.569 41.9335 111.056 42.3482 110.355 42.7202C109.654 43.0922 108.824 43.2782 107.867 43.2782ZM107.565 35.0726C107.278 35.0726 107.016 35.1244 106.778 35.2281C106.54 35.3257 106.333 35.469 106.156 35.6581C105.973 35.8471 105.821 36.0728 105.699 36.335C105.577 36.5972 105.485 36.89 105.424 37.2132H109.596V37.0119C109.596 36.7436 109.547 36.4905 109.449 36.2527C109.352 36.0148 109.218 35.8075 109.047 35.6306C108.876 35.4598 108.666 35.3257 108.416 35.2281C108.172 35.1244 107.888 35.0726 107.565 35.0726ZM114.847 29.0441H120.381V41.0279H123.217V43.0953H114.847V41.0279H117.81V31.1207H114.847V29.0441ZM125.22 38.0548C125.22 37.3352 125.324 36.6704 125.531 36.0606C125.739 35.4446 126.044 34.911 126.446 34.4597C126.842 34.0084 127.327 33.6547 127.901 33.3985C128.48 33.1424 129.142 33.0143 129.886 33.0143C130.63 33.0143 131.291 33.1424 131.871 33.3985C132.45 33.6547 132.941 34.0084 133.344 34.4597C133.74 34.911 134.042 35.4446 134.249 36.0606C134.457 36.6704 134.56 37.3352 134.56 38.0548V38.2469C134.56 38.9726 134.457 39.6435 134.249 40.2594C134.042 40.8693 133.74 41.3999 133.344 41.8512C132.947 42.3025 132.459 42.6562 131.88 42.9123C131.301 43.1624 130.642 43.2874 129.904 43.2874C129.16 43.2874 128.495 43.1624 127.91 42.9123C127.33 42.6562 126.842 42.3025 126.446 41.8512C126.044 41.3999 125.739 40.8693 125.531 40.2594C125.324 39.6435 125.22 38.9726 125.22 38.2469V38.0548ZM127.763 38.2469C127.763 38.6616 127.803 39.0519 127.882 39.4178C127.962 39.7776 128.087 40.0917 128.257 40.3601C128.428 40.6345 128.648 40.851 128.916 41.0096C129.19 41.1681 129.52 41.2474 129.904 41.2474C130.276 41.2474 130.596 41.1681 130.864 41.0096C131.133 40.851 131.352 40.6345 131.523 40.3601C131.688 40.0917 131.81 39.7776 131.889 39.4178C131.968 39.0519 132.008 38.6616 132.008 38.2469V38.0548C132.008 37.6523 131.968 37.2711 131.889 36.9113C131.81 36.5515 131.688 36.2344 131.523 35.9599C131.352 35.6855 131.133 35.469 130.864 35.3104C130.596 35.1519 130.27 35.0726 129.886 35.0726C129.508 35.0726 129.184 35.1519 128.916 35.3104C128.648 35.469 128.428 35.6855 128.257 35.9599C128.087 36.2344 127.962 36.5515 127.882 36.9113C127.803 37.2711 127.763 37.6523 127.763 38.0548V38.2469ZM136.856 46.9008V33.1973H139.207L139.299 34.1669C139.433 34.0023 139.579 33.8559 139.738 33.7278C139.896 33.5937 140.067 33.4778 140.25 33.3802C140.47 33.2644 140.711 33.1759 140.973 33.1149C141.241 33.0479 141.528 33.0143 141.833 33.0143C142.461 33.0143 143.016 33.1363 143.498 33.3802C143.979 33.6181 144.385 33.9565 144.714 34.3956C145.044 34.8408 145.291 35.3745 145.455 35.9965C145.626 36.6125 145.711 37.2955 145.711 38.0456V38.2378C145.711 38.9574 145.626 39.6252 145.455 40.2411C145.291 40.8571 145.047 41.3877 144.724 41.8329C144.394 42.2842 143.989 42.6379 143.507 42.894C143.025 43.1502 142.473 43.2782 141.851 43.2782C141.522 43.2782 141.217 43.2416 140.936 43.1685C140.662 43.1014 140.406 43.0007 140.168 42.8666C140.028 42.7812 139.893 42.6867 139.765 42.583C139.637 42.4793 139.515 42.3634 139.399 42.2354V46.9008H136.856ZM143.168 38.0456C143.168 37.6309 143.129 37.2437 143.049 36.8839C142.976 36.518 142.86 36.2008 142.702 35.9325C142.537 35.6702 142.327 35.4629 142.071 35.3104C141.821 35.158 141.516 35.0817 141.156 35.0817C140.948 35.0817 140.759 35.1031 140.589 35.1458C140.418 35.1824 140.262 35.2372 140.122 35.3104C139.964 35.3958 139.823 35.5025 139.701 35.6306C139.585 35.7587 139.485 35.9081 139.399 36.0789V40.2137C139.479 40.3723 139.573 40.5156 139.683 40.6436C139.799 40.7717 139.93 40.8815 140.076 40.973C140.217 41.0583 140.378 41.1254 140.561 41.1742C140.744 41.2169 140.948 41.2383 141.174 41.2383C141.534 41.2383 141.839 41.159 142.089 41.0004C142.345 40.8418 142.552 40.6253 142.711 40.3509C142.87 40.0765 142.985 39.7594 143.059 39.3995C143.132 39.0336 143.168 38.6464 143.168 38.2378V38.0456ZM152.874 43.2782C152.112 43.2782 151.42 43.1532 150.798 42.9032C150.176 42.6531 149.642 42.3116 149.197 41.8786C148.752 41.4517 148.407 40.9486 148.163 40.3692C147.925 39.7837 147.806 39.1586 147.806 38.4939V38.128C147.806 37.3718 147.925 36.6826 148.163 36.0606C148.401 35.4324 148.733 34.8927 149.16 34.4414C149.587 33.9901 150.093 33.6394 150.679 33.3894C151.264 33.1393 151.902 33.0143 152.591 33.0143C153.304 33.0143 153.938 33.1332 154.493 33.3711C155.054 33.6028 155.53 33.9322 155.92 34.3591C156.305 34.786 156.597 35.3013 156.799 35.905C157 36.5027 157.101 37.1644 157.101 37.8901V38.9696H150.386V38.997C150.471 39.3934 150.581 39.7136 150.715 39.9576C150.85 40.1954 151.029 40.4119 151.255 40.6071C151.487 40.8083 151.752 40.9638 152.051 41.0736C152.35 41.1834 152.676 41.2383 153.03 41.2383C153.53 41.2383 154.015 41.1437 154.484 40.9547C154.954 40.7656 155.335 40.482 155.628 40.1039L156.899 41.4761C156.576 41.9335 156.064 42.3482 155.362 42.7202C154.661 43.0922 153.832 43.2782 152.874 43.2782ZM152.572 35.0726C152.286 35.0726 152.024 35.1244 151.786 35.2281C151.548 35.3257 151.34 35.469 151.164 35.6581C150.981 35.8471 150.828 36.0728 150.706 36.335C150.584 36.5972 150.493 36.89 150.432 37.2132H154.603V37.0119C154.603 36.7436 154.554 36.4905 154.457 36.2527C154.359 36.0148 154.225 35.8075 154.054 35.6306C153.884 35.4598 153.673 35.3257 153.423 35.2281C153.179 35.1244 152.896 35.0726 152.572 35.0726ZM166.431 33.0143C166.816 33.0143 167.169 33.0418 167.493 33.0966C167.822 33.1454 168.087 33.2003 168.288 33.2613L167.913 35.7953C167.578 35.716 167.233 35.6581 166.88 35.6215C166.532 35.5788 166.2 35.5574 165.883 35.5574C165.553 35.5574 165.254 35.5879 164.986 35.6489C164.724 35.7038 164.489 35.7892 164.282 35.905C164.032 36.0392 163.818 36.21 163.641 36.4173C163.464 36.6247 163.318 36.8686 163.202 37.1492V43.0953H160.659V33.1973H163.028L163.129 34.5969L163.147 34.8164C163.55 34.2554 164.032 33.8163 164.593 33.4992C165.154 33.1759 165.767 33.0143 166.431 33.0143ZM76.1327 60.6191C76.1327 60.3812 76.09 60.1586 76.0047 59.9513C75.9254 59.7439 75.7882 59.5488 75.593 59.3658C75.3917 59.189 75.1295 59.0274 74.8063 58.881C74.4892 58.7285 74.0927 58.5883 73.6171 58.4602C72.8791 58.2589 72.2296 58.015 71.6686 57.7284C71.1136 57.4417 70.6592 57.1276 70.3055 56.7861C69.9518 56.4446 69.6835 56.0665 69.5005 55.6518C69.3237 55.2371 69.2352 54.7858 69.2352 54.2979C69.2352 53.7368 69.3541 53.2276 69.592 52.7702C69.8298 52.3128 70.1592 51.9225 70.58 51.5993C71.0008 51.2761 71.4978 51.0291 72.0711 50.8583C72.6443 50.6814 73.2664 50.593 73.9372 50.593C74.6325 50.593 75.2667 50.6936 75.84 50.8949C76.4194 51.0961 76.9164 51.3767 77.3311 51.7365C77.7458 52.1024 78.069 52.5354 78.3008 53.0355C78.5325 53.5356 78.6484 54.0844 78.6484 54.6821H76.1419C76.1297 54.3833 76.0748 54.1088 75.9772 53.8588C75.8857 53.6088 75.7485 53.3923 75.5656 53.2093C75.3765 53.0324 75.1417 52.8952 74.8612 52.7976C74.5867 52.694 74.2635 52.6421 73.8915 52.6421C73.55 52.6421 73.245 52.6848 72.9767 52.7702C72.7145 52.8495 72.4919 52.9623 72.3089 53.1087C72.126 53.2611 71.9857 53.441 71.8881 53.6484C71.7966 53.8497 71.7509 54.0692 71.7509 54.307C71.7509 54.5571 71.8119 54.7827 71.9338 54.984C72.0619 55.1852 72.2449 55.3652 72.4827 55.5237C72.7206 55.6884 73.0072 55.8378 73.3426 55.972C73.6841 56.1061 74.0684 56.2312 74.4953 56.347C74.9526 56.4751 75.3887 56.6306 75.8034 56.8136C76.2181 56.9965 76.5993 57.2069 76.9469 57.4448C77.4714 57.8351 77.8891 58.2894 78.2001 58.8078C78.5112 59.3262 78.6667 59.9238 78.6667 60.6008C78.6667 61.1863 78.5478 61.7077 78.3099 62.1651C78.0782 62.6164 77.7549 62.9975 77.3402 63.3086C76.9255 63.6257 76.4316 63.8666 75.8583 64.0312C75.285 64.1898 74.6599 64.2691 73.983 64.2691C73.3182 64.2691 72.6596 64.1715 72.007 63.9764C71.3606 63.7751 70.7965 63.4824 70.3147 63.0982C69.8573 62.72 69.4944 62.2748 69.2261 61.7626C68.9638 61.2503 68.8327 60.6496 68.8327 59.9604H71.3575C71.3697 60.3629 71.4399 60.7075 71.5679 60.9941C71.696 61.2808 71.8759 61.5156 72.1077 61.6985C72.3333 61.8815 72.6047 62.0157 72.9218 62.101C73.245 62.1864 73.5988 62.2291 73.983 62.2291C74.3245 62.2291 74.6264 62.1895 74.8886 62.1102C75.1569 62.0309 75.3826 61.9211 75.5656 61.7809C75.7485 61.6406 75.8888 61.4729 75.9864 61.2777C76.0839 61.0765 76.1327 60.8569 76.1327 60.6191ZM87.0187 64.0953L86.8723 62.7048C86.5369 63.1988 86.1314 63.586 85.6557 63.8666C85.1861 64.1471 84.6707 64.2874 84.1097 64.2874C83.5974 64.2874 83.1278 64.2081 82.7009 64.0495C82.274 63.891 81.9081 63.6379 81.6032 63.2903C81.2982 62.9487 81.0604 62.5127 80.8896 61.9821C80.725 61.4454 80.6426 60.802 80.6426 60.0519V54.1973H83.1857V60.0702C83.1857 60.4727 83.2132 60.8112 83.2681 61.0856C83.3291 61.3601 83.4236 61.5796 83.5516 61.7443C83.6797 61.915 83.8474 62.037 84.0548 62.1102C84.2621 62.1834 84.5152 62.22 84.8141 62.22C85.0824 62.22 85.3233 62.1925 85.5367 62.1376C85.7563 62.0827 85.9484 62.0035 86.1131 61.8998C86.2533 61.8083 86.3783 61.6985 86.4881 61.5705C86.5979 61.4424 86.6924 61.2991 86.7717 61.1405V54.1973H89.324V64.0953H87.0187ZM98.9201 54.0143C99.3043 54.0143 99.658 54.0418 99.9812 54.0966C100.311 54.1454 100.576 54.2003 100.777 54.2613L100.402 56.7953C100.067 56.716 99.722 56.6581 99.3683 56.6215C99.0207 56.5788 98.6883 56.5574 98.3712 56.5574C98.0419 56.5574 97.7431 56.5879 97.4747 56.6489C97.2125 56.7038 96.9777 56.7892 96.7703 56.905C96.5203 57.0392 96.3068 57.21 96.13 57.4173C95.9531 57.6247 95.8068 57.8686 95.6909 58.1492V64.0953H93.1478V54.1973H95.5171L95.6177 55.5969L95.636 55.8164C96.0385 55.2554 96.5203 54.8163 97.0814 54.4992C97.6424 54.1759 98.2553 54.0143 98.9201 54.0143ZM106.211 64.0953L102.433 54.1973H105.086L107.263 61.1771L107.4 61.8723L107.537 61.1771L109.705 54.1973H112.358L108.599 64.0953H106.211ZM119.119 64.2782C118.356 64.2782 117.664 64.1532 117.042 63.9032C116.42 63.6531 115.886 63.3116 115.441 62.8786C114.996 62.4517 114.651 61.9486 114.407 61.3692C114.17 60.7837 114.051 60.1586 114.051 59.4939V59.128C114.051 58.3718 114.17 57.6826 114.407 57.0606C114.645 56.4324 114.978 55.8927 115.405 55.4414C115.831 54.9901 116.338 54.6394 116.923 54.3894C117.509 54.1393 118.146 54.0143 118.835 54.0143C119.549 54.0143 120.183 54.1332 120.738 54.3711C121.299 54.6028 121.775 54.9322 122.165 55.3591C122.549 55.786 122.842 56.3013 123.043 56.905C123.244 57.5027 123.345 58.1644 123.345 58.8901V59.9696H116.63V59.997C116.716 60.3934 116.826 60.7136 116.96 60.9576C117.094 61.1954 117.274 61.4119 117.499 61.6071C117.731 61.8083 117.996 61.9638 118.295 62.0736C118.594 62.1834 118.92 62.2383 119.274 62.2383C119.774 62.2383 120.259 62.1437 120.729 61.9547C121.198 61.7656 121.579 61.482 121.872 61.1039L123.144 62.4761C122.82 62.9335 122.308 63.3482 121.607 63.7202C120.905 64.0922 120.076 64.2782 119.119 64.2782ZM118.817 56.0726C118.53 56.0726 118.268 56.1244 118.03 56.2281C117.792 56.3257 117.585 56.469 117.408 56.6581C117.225 56.8471 117.073 57.0728 116.951 57.335C116.829 57.5972 116.737 57.89 116.676 58.2132H120.848V58.0119C120.848 57.7436 120.799 57.4905 120.701 57.2527C120.604 57.0148 120.469 56.8075 120.299 56.6306C120.128 56.4598 119.918 56.3257 119.667 56.2281C119.424 56.1244 119.14 56.0726 118.817 56.0726ZM127.132 68.0929C126.888 68.0929 126.675 68.0777 126.492 68.0472C126.315 68.0167 126.117 67.9709 125.897 67.9099L126.208 65.9706C126.312 65.9706 126.443 65.9736 126.602 65.9797C126.766 65.9919 126.897 65.998 126.995 65.998C127.196 65.998 127.373 65.934 127.525 65.8059C127.684 65.684 127.818 65.5498 127.928 65.4034C128.038 65.2571 128.117 65.1473 128.166 65.0741C128.221 65.0009 128.285 64.8972 128.358 64.7631L128.943 63.6745L124.754 54.1973H127.535L129.803 59.997L130.078 61.0033L130.453 60.0153L132.712 54.1973H135.521L130.499 65.5772C130.389 65.8273 130.245 66.0987 130.069 66.3914C129.898 66.6841 129.681 66.9555 129.419 67.2056C129.157 67.4556 128.837 67.666 128.459 67.8368C128.087 68.0075 127.644 68.0929 127.132 68.0929Z" fill="black"></path><path d="M49.1895 44.704V62.8401H6.46956V44.704H0.0341797V69.2755H55.6125V44.704H49.1895Z" fill="black"></path><path d="M12.353 56.9898H43.3266V51.1394H12.353V56.9898ZM12.9721 42.9985L43.0596 49.3132L44.2977 43.3081L14.2103 36.9934L12.9721 42.9985ZM16.9342 28.5739L44.793 41.5746L47.3932 36.0029L19.5344 23.0021L16.9342 28.5739ZM24.6728 14.8921L48.3218 34.579L52.2839 29.874L28.573 10.1871L24.6728 14.8921ZM39.9023 0.343689L34.9496 3.99628L53.2745 28.6977L58.2271 25.0451L39.9023 0.343689Z" fill="black"></path></svg>