<svg xmlns="http://www.w3.org/2000/svg" xmlns:xlink="http://www.w3.org/1999/xlink" width="2000" zoomAndPan="magnify" viewBox="0 0 1500 373.499994" height="498" preserveAspectRatio="xMidYMid meet" version="1.0"><path fill="#fffffd" d="M 90.585938 88.808594 L 223.796875 88.808594 L 223.796875 284.179688 L 90.585938 284.179688 Z M 90.585938 88.808594 " fill-opacity="1" fill-rule="nonzero"/><path fill="#fffffd" d="M 241.554688 88.808594 L 302.105469 88.808594 L 302.105469 177.613281 L 241.554688 177.613281 Z M 241.554688 88.808594 " fill-opacity="1" fill-rule="nonzero"/><path fill="#fffffd" d="M 241.554688 195.375 L 374.761719 195.375 L 374.761719 284.179688 L 241.554688 284.179688 Z M 241.554688 195.375 " fill-opacity="1" fill-rule="nonzero"/><path fill="#fffffd" d="M 480.234375 108.222656 C 537.539062 109.859375 562.035156 140.371094 562.035156 186.414062 C 562.035156 234.097656 535.898438 266.136719 479.46875 266.136719 L 428.070312 266.136719 L 428.070312 108 C 432.003906 108.003906 466.457031 107.894531 480.234375 108.222656 Z M 465.472656 236.5 L 480.5625 236.5 C 502.105469 236.5 523.214844 223.050781 523.214844 185.976562 C 523.214844 152.949219 506.589844 137.640625 480.78125 137.640625 L 465.472656 137.640625 Z M 465.472656 236.5 " fill-opacity="1" fill-rule="nonzero"/><path fill="#fffffd" d="M 569.890625 233 C 569.890625 208.394531 588.15625 194.726562 628.726562 194.507812 L 640.210938 194.398438 L 640.210938 188.601562 C 640.210938 179.855469 635.289062 175.257812 624.679688 175.371094 C 617.023438 175.589844 608.277344 178.429688 604.996094 187.507812 L 574.484375 187.507812 C 575.6875 161.917969 597.667969 150.875 626.320312 150.875 C 663.394531 150.875 675.859375 164.871094 675.859375 186.308594 L 675.859375 266.140625 L 644.914062 266.140625 L 641.742188 247.4375 C 634.414062 263.296875 624.027344 268.324219 608.496094 268.324219 C 586.953125 268.324219 569.890625 255.75 569.890625 233 Z M 640.210938 228.082031 L 640.210938 212.664062 L 631.023438 212.773438 C 619.648438 212.882812 604.886719 216.707031 604.886719 229.175781 C 604.886719 238.800781 612.429688 244.378906 621.289062 244.378906 C 631.132812 244.375 639.992188 236.609375 640.210938 228.082031 Z M 640.210938 228.082031 " fill-opacity="1" fill-rule="nonzero"/><path fill="#fffffd" d="M 739.714844 178.542969 L 739.824219 234.316406 C 739.824219 240.984375 742.882812 242.078125 748.242188 242.078125 L 764.757812 242.078125 L 764.757812 264.496094 C 761.695312 265.917969 755.898438 267.558594 743.542969 267.558594 C 710.839844 267.558594 702.53125 254.109375 702.53125 235.953125 L 702.53125 178.542969 L 684.15625 178.542969 L 684.15625 153.0625 L 703.84375 153.0625 L 713.355469 118.394531 L 739.714844 118.394531 L 739.714844 152.84375 L 764.539062 152.84375 L 764.539062 178.542969 Z M 739.714844 178.542969 " fill-opacity="1" fill-rule="nonzero"/><path fill="#fffffd" d="M 775.902344 233 C 775.902344 208.394531 794.167969 194.726562 834.738281 194.507812 L 846.222656 194.398438 L 846.222656 188.601562 C 846.222656 179.855469 841.300781 175.257812 830.695312 175.371094 C 823.039062 175.589844 814.289062 178.429688 811.011719 187.507812 L 780.5 187.507812 C 781.703125 161.917969 803.683594 150.875 832.335938 150.875 C 869.410156 150.875 881.875 164.871094 881.875 186.308594 L 881.875 266.140625 L 850.929688 266.140625 L 847.757812 247.4375 C 840.429688 263.296875 830.042969 268.324219 814.511719 268.324219 C 792.964844 268.324219 775.902344 255.75 775.902344 233 Z M 846.222656 228.082031 L 846.222656 212.664062 L 837.03125 212.773438 C 825.660156 212.882812 810.894531 216.707031 810.894531 229.175781 C 810.894531 238.800781 818.445312 244.378906 827.300781 244.378906 C 837.144531 244.375 846 236.609375 846.222656 228.082031 Z M 846.222656 228.082031 " fill-opacity="1" fill-rule="nonzero"/><path fill="#fffffd" d="M 918.242188 108.003906 L 978.5 108.003906 C 1021.367188 108.003906 1040.835938 122.765625 1040.835938 149.671875 C 1040.835938 164.761719 1034.273438 175.808594 1014.371094 184.992188 C 1041.382812 192.539062 1044.554688 209.925781 1044.554688 223.160156 C 1044.554688 252.46875 1026.183594 266.136719 981.5625 266.136719 L 918.246094 266.136719 L 918.246094 108.003906 Z M 984.078125 171.542969 C 995.667969 171.542969 1004.964844 165.527344 1004.964844 154.371094 C 1004.964844 142.890625 995.234375 136.328125 982.328125 136.328125 L 955.53125 136.328125 L 955.53125 171.542969 Z M 982.765625 237.8125 C 998.515625 237.8125 1006.714844 229.613281 1006.714844 219.003906 C 1006.714844 207.628906 997.3125 200.628906 984.078125 200.628906 L 955.535156 200.628906 L 955.535156 237.8125 Z M 982.765625 237.8125 " fill-opacity="1" fill-rule="nonzero"/><path fill="#fffffd" d="M 1111.464844 241.96875 C 1120.867188 241.96875 1128.523438 238.6875 1131.804688 228.957031 L 1165.054688 228.957031 C 1161.332031 253.5625 1136.726562 268.324219 1112.449219 268.324219 C 1078.003906 268.324219 1054.597656 245.6875 1054.597656 210.914062 C 1054.597656 177.773438 1075.269531 150.875 1110.699219 150.875 C 1146.460938 150.875 1164.832031 175.152344 1164.832031 208.832031 L 1164.832031 218.128906 L 1091.234375 218.128906 C 1091.125 233.550781 1099.324219 241.96875 1111.464844 241.96875 Z M 1130.277344 196.695312 C 1130.277344 185.539062 1123.710938 176.355469 1110.699219 176.355469 C 1099 176.355469 1091.125 186.195312 1091.125 196.695312 Z M 1130.277344 196.695312 " fill-opacity="1" fill-rule="nonzero"/><path fill="#fffffd" d="M 1178.707031 153.0625 L 1215.449219 153.0625 L 1215.449219 168.917969 C 1220.371094 161.261719 1229.230469 152.296875 1247.054688 152.296875 C 1267.285156 152.296875 1286.644531 163.453125 1286.644531 191.226562 L 1286.644531 266.140625 L 1249.246094 266.140625 L 1249.246094 196.148438 C 1249.246094 186.199219 1241.699219 181.167969 1233.386719 181.167969 C 1224.96875 181.167969 1215.890625 185.980469 1215.890625 195.277344 L 1215.890625 266.144531 L 1178.707031 266.144531 Z M 1178.707031 153.0625 " fill-opacity="1" fill-rule="nonzero"/><path fill="#fffffd" d="M 1355.851562 241.96875 C 1365.257812 241.96875 1372.914062 238.6875 1376.195312 228.957031 L 1409.441406 228.957031 C 1405.726562 253.5625 1381.117188 268.324219 1356.839844 268.324219 C 1322.390625 268.324219 1298.988281 245.6875 1298.988281 210.914062 C 1298.988281 177.773438 1319.65625 150.875 1355.089844 150.875 C 1390.847656 150.875 1409.226562 175.152344 1409.226562 208.832031 L 1409.226562 218.128906 L 1335.625 218.128906 C 1335.511719 233.550781 1343.714844 241.96875 1355.851562 241.96875 Z M 1374.664062 196.695312 C 1374.664062 185.539062 1368.097656 176.355469 1355.085938 176.355469 C 1343.382812 176.355469 1335.511719 186.195312 1335.511719 196.695312 Z M 1374.664062 196.695312 " fill-opacity="1" fill-rule="nonzero"/></svg>